<svg
      version="1.2"
      baseProfile="tiny-ps"
      xmlns="http://www.w3.org/2000/svg"
      viewBox="0 0 2048 2048"
      width="48"
      height="48"
    >
      <g id="document">
        <path
          id="Layer"
          fill-rule="evenodd"
          fill="#0b0c00"
          d="M572.75 1350.95C366.27 1336.63 210.33 1157.42 224.66 950.95C238.99 744.47 418.19 588.53 624.67 602.86C831.14 617.19 987.09 796.39 972.76 1002.87C958.43 1209.34 779.22 1365.29 572.75 1350.95ZM374.28 961.33C365.66 1085.52 458.95 1192.72 583.13 1201.34C707.32 1209.95 814.52 1116.67 823.14 992.48C831.75 868.3 738.47 761.1 614.28 752.48C490.1 743.86 382.9 837.15 374.28 961.33Z"
        />
        <path
          id="Layer"
          fill-rule="evenodd"
          fill="#0b0c00"
          d="M1207.86 1323.81C1127.12 1249.31 1079.65 1140.18 1087.85 1022.13C1102.17 815.65 1281.38 659.71 1487.85 674.04C1694.33 688.37 1850.27 867.57 1835.94 1074.05C1827.27 1199.03 1758.18 1305.5 1659.21 1366.89C1614.41 1343.07 1565.78 1324.67 1513.95 1312.75C1408.85 1288.58 1303.9 1294.1 1207.86 1323.81ZM1237.46 1032.51C1228.85 1156.7 1322.13 1263.9 1446.32 1272.52C1570.5 1281.14 1677.7 1187.85 1686.32 1063.66C1694.94 939.48 1601.65 832.28 1477.47 823.66C1353.29 815.04 1246.08 908.33 1237.46 1032.51Z"
        />
        <path
          id="Layer"
          fill="#141311"
          stroke="#000000"
          stroke-linecap="square"
          stroke-width="42.02"
          d="M845.83 1094.27L916.64 1099.18C920.72 1040.41 971.45 996.26 1030.22 1000.34C1088.98 1004.42 1133.13 1055.15 1129.05 1113.92L1199.86 1118.84C1206.64 1021.12 1132.84 936.32 1035.13 929.54C937.42 922.76 852.61 996.55 845.83 1094.27Z"
        />
        <path
          id="Layer"
          fill="#000000"
          d="M977.95 588.29C983.29 587.16 987.14 585.92 991.89 582.49C1004.58 572.85 1007.38 554.25 997.79 540.81C996.39 539.2 991.62 532.11 980.28 522.3C985.62 521.17 990.96 520.04 996.45 516.66C1009.15 507.01 1011.95 488.42 1002.35 474.97C998.18 470.17 898.01 342.95 645.15 325.4C645.15 325.4 645.15 325.4 643.66 325.3C643.66 325.3 643.66 325.3 642.16 325.19C389.3 307.64 274.02 419.91 268.42 424.79C256.37 435.98 256.51 455.53 267.76 466.84C271.24 470.84 276.27 474.19 283 474.66C269.66 482.75 263.96 489.12 263.15 489.82C251.85 501.06 252 520.62 263.24 531.92C266.72 535.92 271.11 537.73 276.24 539.59C269.14 544.36 265.14 547.84 265.14 547.84C255.54 556.19 254.45 571.9 262.75 582.25C267.63 587.85 272.76 589.71 279.49 590.18C286.23 590.64 291.67 588.02 297.17 584.64C298.77 583.25 403.41 494.29 630.14 509.27C854.46 526.35 949.56 629.16 949.51 629.91C954.38 635.51 959.51 637.37 966.25 637.84C972.98 638.31 978.42 635.68 983.92 632.3C993.52 623.95 994.61 608.24 986.31 597.89C987.86 597.25 984.32 593.99 977.95 588.29Z"
        />
        <path
          id="Layer"
          fill="#000000"
          stroke="#000000"
          stroke-linecap="square"
          stroke-width="42.19"
          d="M1008.49 1607.48L983.1 1677.28C1175.75 1747.37 1389 1647.9 1459.09 1455.25L1389.29 1429.85C1333.16 1584.12 1162.76 1663.6 1008.49 1607.48Z"
        />
        <path
          id="图层 1"
          fill="#ffcc00"
          d="M599 1203C474.57 1203 374 1102.42 374 978C374 853.58 474.57 753 599 753C723.43 753 824 853.58 824 978C824 1102.42 723.43 1203 599 1203Z"
        />
        <path
          id="图层 1 copy"
          fill="#ffcc00"
          d="M1463 1272C1338.57 1272 1238 1171.42 1238 1047C1238 922.58 1338.57 822 1463 822C1587.43 822 1688 922.58 1688 1047C1688 1171.42 1587.43 1272 1463 1272Z"
        />
      </g>
    </svg>