<?xml version="1.0" standalone="no"?>
<!DOCTYPE svg PUBLIC "-//W3C//DTD SVG 20010904//EN"
 "http://www.w3.org/TR/2001/REC-SVG-20010904/DTD/svg10.dtd">
<svg version="1.0" xmlns="http://www.w3.org/2000/svg"
 width="512.000000pt" height="512.000000pt" viewBox="0 0 512.000000 512.000000"
 preserveAspectRatio="xMidYMid meet">
<metadata>
Created by potrace 1.14, written by Peter Selinger 2001-2017
</metadata>
<g transform="translate(0.000000,512.000000) scale(0.100000,-0.100000)"
fill="#000000" stroke="none">
<path d="M1299 4306 c-2 -2 -24 -6 -49 -9 -219 -28 -455 -123 -567 -230 -42
-39 -45 -86 -8 -115 l24 -19 -29 -27 c-37 -33 -41 -85 -9 -115 20 -18 20 -21
6 -35 -26 -26 -30 -55 -13 -81 24 -37 58 -36 114 2 110 75 282 136 454 160 69
10 387 10 457 0 280 -40 542 -147 677 -276 36 -34 48 -38 85 -28 34 9 45 48
25 87 -13 27 -12 30 9 44 36 24 42 70 13 111 -12 19 -27 35 -33 35 -5 1 4 7
22 14 40 18 53 64 27 104 -25 40 -89 96 -181 158 -215 145 -502 221 -844 222
-97 1 -178 0 -180 -2z"/>
<path d="M1407 3614 c-1 -1 -22 -5 -47 -9 -101 -14 -190 -43 -294 -96 -180
-91 -320 -235 -411 -422 -72 -149 -88 -224 -88 -412 0 -144 3 -169 26 -247 51
-167 123 -290 238 -407 176 -178 384 -268 634 -276 173 -5 297 21 447 95 241
119 412 327 488 595 25 88 27 91 70 113 54 28 124 25 188 -7 48 -24 60 -43 60
-91 1 -199 122 -469 274 -612 27 -26 30 -26 71 -14 23 7 45 13 50 14 4 0 20 3
35 6 65 13 91 17 162 25 128 13 289 6 423 -19 74 -14 230 -60 241 -71 6 -5 16
-9 23 -9 8 0 45 -15 83 -34 l69 -34 63 47 c194 147 328 364 365 589 16 94 7
301 -15 390 -106 413 -469 701 -887 706 -150 1 -222 -10 -343 -55 -233 -85
-435 -273 -533 -494 -29 -66 -36 -75 -54 -70 -107 34 -228 44 -297 24 -24 -7
-27 -4 -33 24 -56 274 -244 523 -490 649 -54 28 -195 80 -195 73 0 -2 -12 0
-26 5 -14 6 -47 13 -72 16 -47 6 -221 12 -225 8z"/>
<path d="M3434 1593 c-4 -10 -19 -46 -35 -80 -87 -193 -242 -322 -461 -383
-100 -28 -266 -22 -371 13 l-78 25 -8 -21 c-51 -135 -91 -250 -89 -252 6 -6
165 -53 198 -60 87 -17 284 -15 375 4 315 66 559 256 695 543 66 140 72 127
-78 181 -72 26 -133 47 -136 47 -4 0 -9 -8 -12 -17z"/>
</g>
</svg>
